inDegrees=no
num_controls=7
num_derivatives=13
num_iterations=123
num_multipliers=7
num_parameters=0
num_slacks=7
num_states=26
objective=0.448424
objective_accelerations=0.049103
objective_balance=0.007551
objective_effort=0.036720
objective_height=0.350110
objective_ligament=0.004940
solver_duration=1744.867214
status=Solve_Succeeded
success=true
DataType=double
version=3
OpenSimVersion=4.5
endheader
time	/jointset/ground_pelvis/pelvis_tilt/value	/jointset/ground_pelvis/pelvis_tx/value	/jointset/ground_pelvis/pelvis_ty/value	/jointset/hip_l/hip_flexion_l/value	/jointset/hip_l/hip_adduction_l/value	/jointset/hip_l/hip_rotation_l/value	/jointset/back/lumbar_extension/value	/jointset/patellofemoral_l/patellar_flexion_l/value	/jointset/knee_l/knee_flexion_l/value	/jointset/knee_l/knee_adduction_l/value	/jointset/knee_l/knee_rotation_l/value	/jointset/ankle_l/ankle_angle_l/value	/jointset/subtalar_l/subtalar_angle_l/value	/jointset/ground_pelvis/pelvis_tilt/speed	/jointset/ground_pelvis/pelvis_tx/speed	/jointset/ground_pelvis/pelvis_ty/speed	/jointset/hip_l/hip_flexion_l/speed	/jointset/hip_l/hip_adduction_l/speed	/jointset/hip_l/hip_rotation_l/speed	/jointset/back/lumbar_extension/speed	/jointset/patellofemoral_l/patellar_flexion_l/speed	/jointset/knee_l/knee_flexion_l/speed	/jointset/knee_l/knee_adduction_l/speed	/jointset/knee_l/knee_rotation_l/speed	/jointset/ankle_l/ankle_angle_l/speed	/jointset/subtalar_l/subtalar_angle_l/speed	/forceset/tau_hip_flexion_l	/forceset/tau_hip_adduction_l	/forceset/tau_hip_rotation_l	/forceset/tau_knee_flexion_l	/forceset/tau_ankle_angle_l	/forceset/tau_subtalar_angle_l	/forceset/tau_lumbar_extension	lambda_cid13_p0	lambda_cid13_p1	lambda_cid13_p2	lambda_cid13_p3	lambda_cid13_p4	lambda_cid13_p5	lambda_cid14_p0	/jointset/ground_pelvis/pelvis_tilt/accel	/jointset/ground_pelvis/pelvis_tx/accel	/jointset/ground_pelvis/pelvis_ty/accel	/jointset/hip_l/hip_flexion_l/accel	/jointset/hip_l/hip_adduction_l/accel	/jointset/hip_l/hip_rotation_l/accel	/jointset/back/lumbar_extension/accel	/jointset/patellofemoral_l/patellar_flexion_l/accel	/jointset/knee_l/knee_flexion_l/accel	/jointset/knee_l/knee_adduction_l/accel	/jointset/knee_l/knee_rotation_l/accel	/jointset/ankle_l/ankle_angle_l/accel	/jointset/subtalar_l/subtalar_angle_l/accel	gamma_cid13_p0	gamma_cid13_p1	gamma_cid13_p2	gamma_cid13_p3	gamma_cid13_p4	gamma_cid13_p5	gamma_cid14_p0
1.5	-0.4533790271266563	-0.07657121697137986	0.7619789596283316	1.27357129582221	-0.3099999180843862	-0.0476980902942888	-0.3450405594993664	0.6856590864359016	0.6856590864359227	-0.1733758201985837	0.1744095115946925	0.03092372848567881	-0.05051233112164624	0.7451252569979753	0.2690606471590953	0.4910051950414616	-2.354185862835587	0.03397750860673521	-0.6059540420643632	0.5655085158507062	-1.738501369113138	-1.738501369113313	0.005732909066128118	-0.0004759950701169863	-0.221306435708946	0.01074227314991098	-0.252719529562448	0.02290844371650546	-0.02089919857769205	-0.1988385826124156	0.1426295193441341	0.03866168982544835	0.2266314626637335	6.735783485368332	-20.66514318874254	5.970490450604343	-5.333301941147814	-610.0702370071012	-55.1271504811151	-28.49517104751849	0.6357778717321273	0.6778724838133471	-0.2980604852943252	-1.521430843645322	0.5743259741937169	-0.2893373405297917	1.728539656875197	-1.077782757789363	-1.077782757789319	0.02107256686453064	-0.02199988658617759	-0.1351599977168901	0.5513811032161473	2.476101092304604e-07	7.62140962558537e-07	-1.230902534965497e-06	-5.815953107533227e-08	3.371265480458717e-07	-5.494841959311698e-08	2.844597151315683e-07
1.51	-0.445896354440237	-0.07384693379569461	0.7668731712284208	1.249955592756649	-0.3096323825630042	-0.05377199645418858	-0.3393005002104064	0.6682224974500841	0.668222497450095	-0.1733191196208726	0.1744051044069374	0.02870408388670578	-0.05037836324531259	0.7513058249744928	0.2757653889568964	0.4877395496349362	-2.368630233533988	0.03953602727556839	-0.6087241159134079	0.5824253881421019	-1.748572455631058	-1.748572455631145	0.005586293670524843	-0.000423396060090291	-0.2225740287679232	0.01605906660592673	-0.2445960332542884	0.02216855848633799	-0.02077763578778796	-0.1975478454010442	0.1425802023521643	0.03801410992905511	0.2203434655437582	6.958895300479459	-20.53336587872813	6.075586433411502	-5.304923304557157	-605.5922984595373	-55.44447885231745	-29.48897905748598	0.5936943736652724	0.662210044500751	-0.3554063767540023	-1.357242418639359	0.5474825204998797	-0.2551785083080937	1.661567945381936	-0.9352150554938512	-0.9352150554805937	-0.03547993692018141	0.01633107760590814	-0.1152775531755034	0.5228576237216819	1.303199020604657e-07	1.017223658554263e-06	-6.750325110570525e-07	6.229635091620568e-08	2.680492336022038e-07	2.28847685881676e-08	2.264709148199318e-07
1.52	-0.4383549764514429	-0.07105651619868385	0.7717318084127606	1.226205185536963	-0.3092090883134792	-0.0598704705728251	-0.3333936108125106	0.6506925089077471	0.6506925089077498	-0.1732644754659466	0.1744007114658429	0.02647321963850521	-0.05019102160303333	0.7568663174731604	0.2822875314241945	0.483890311891528	-2.381126693660462	0.04512925423527411	-0.6108676338111043	0.598874537637905	-1.757181280417001	-1.757181280417	0.005321624509023521	-0.0004731457377105146	-0.2235503655543962	0.02141702633903771	-0.2364725369461315	0.02142867325616182	-0.02065607299788149	-0.1962571081896761	0.1425308853601907	0.03736653003265232	0.2140554684237829	7.174328697706637	-20.40255943226802	6.183481896138462	-5.261967236495559	-601.2355026569952	-55.81694176727306	-30.46456103220966	0.5117627761620976	0.6413526177127536	-0.4147789526708516	-1.13184872926004	0.5812676323682288	-0.1640261502600867	1.634995097756675	-0.7853304113941222	-0.7853304113942947	-0.002538186315080074	-0.04246962411556393	-0.07690874321606658	0.5596143586351944	6.613298632464518e-08	1.176074268672662e-06	-3.817402342867615e-07	1.292168608347293e-07	2.355898624483999e-07	7.416486596584874e-08	1.973232555483824e-07
1.53	-0.430761091504479	-0.0682018622885191	0.7765490799425556	1.202339582363419	-0.3087297534070276	-0.06598763567111596	-0.327324730695083	0.6330838533329092	0.6330838533329095	-0.173212907243395	0.1743956250751935	0.02423406059735127	-0.04994995310797515	0.7618026362524517	0.288604565923629	0.4794703678518107	-2.391656722467952	0.05073963795218686	-0.612482913847869	0.6148109016709526	-1.764293298085639	-1.764293298085658	0.004985997094360611	-0.0005438487366489493	-0.2242311982389582	0.02680034105494629	-0.2283208409964346	0.02053971873386563	-0.02056186539769071	-0.1949149804573778	0.142417036850302	0.03661737968140517	0.2076952389459185	7.363973145223287	-20.22405767858107	6.284838140029087	-5.165448140437899	-596.901164801311	-56.11891671409691	-31.41766719316273	0.4683756756128711	0.6211050894248413	-0.4695969642499385	-0.9629786879286604	0.5510922474340291	-0.1476999933594466	1.559369429564948	-0.6356968989250876	-0.6356968989278571	-0.04977423089681662	0.01080612100055294	-0.05612067741623589	0.5280836504437074	5.836831773763402e-08	1.232678287546402e-06	-3.674368138507561e-07	1.392560379256759e-07	2.420370560400763e-07	9.723230436470155e-08	1.988193086319253e-07
1.54	-0.423121081520363	-0.06528519278868676	0.7813193530650281	1.178378799155513	-0.3081942809621901	-0.07211843778237127	-0.3210992044626278	0.6154117656905196	0.6154117656905176	-0.1731648351373618	0.1743898670063097	0.02198960320008356	-0.04965497274128292	0.766091324903753	0.2946906493577115	0.4744906304269932	-2.400162700532845	0.05635676191235005	-0.6135950364036254	0.6302037606434461	-1.769867693927336	-1.769867693927373	0.004622401205500257	-0.0006074813842453872	-0.22461003677712	0.03219940066585528	-0.2201691450467368	0.01965076421156444	-0.02046765779750611	-0.1935728527250809	0.1423031883404106	0.03586822933015246	0.2013350094680568	7.545269959091583	-20.04622591571786	6.388736086952969	-5.049321669368841	-592.6956157279644	-56.47657079953444	-32.34408579886061	0.3822367505640393	0.5951624046423655	-0.5267376296908585	-0.727038580740359	0.5826156810183215	-0.06339465405841821	1.526294085645858	-0.4778060460059686	-0.4778060460059907	-0.008131881154570541	-0.04105555384716501	-0.01650991393605045	0.5627633376352796	4.931376342878147e-08	1.289850474610294e-06	-3.509048007912921e-07	1.493954202332482e-07	2.474740396843818e-07	1.203636356298892e-07	1.996799866470398e-07
1.55	-0.4154414400837514	-0.06230887252311242	0.7860370917448776	1.154343072634791	-0.3076026949694348	-0.07825797870575284	-0.3147226052159774	0.5976916618821402	0.5976916618821378	-0.1731205926850605	0.1743836293449669	0.01974287772572507	-0.04930600644236333	0.769723686386718	0.3005285110255332	0.4689692002549926	-2.40663765355259	0.06195363360190945	-0.6142245698700556	0.6450141659304856	-1.773891380648101	-1.773891380648101	0.004212513600322597	-0.0006423685544072353	-0.2246835146952755	0.03758928859836282	-0.211978824527618	0.01858526115508208	-0.02041912758372354	-0.1923142787682605	0.1423640465807529	0.03497917744672518	0.1949153433466125	7.77257570120457	-19.81727134988879	6.486288994800268	-4.95177406584705	-588.5910340440278	-56.76139024422072	-33.23950416152742	0.336756109770703	0.5713972076172779	-0.5779806799322115	-0.5559656706248676	0.5470613108108343	-0.0492345475722641	1.443125336789439	-0.3254368960719872	-0.3254368960664211	-0.05922953669262845	0.0150797084282195	0.004977506944301364	0.5262367643919069	3.87730364404161e-08	1.347677290241099e-06	-3.318050614482781e-07	1.596502563773675e-07	2.517470857806299e-07	1.435685825888973e-07	1.998086020833132e-07
